<svg xmlns="http://www.w3.org/2000/svg" xmlns:xlink="http://www.w3.org/1999/xlink" version="1.1" width="48" height="48" viewBox="0 0 256 256" xml:space="preserve">
<g style="stroke: none; stroke-width: 0; stroke-dasharray: none; stroke-linecap: butt; stroke-linejoin: miter; stroke-miterlimit: 10; fill: none; fill-rule: nonzero; opacity: 1;" transform="translate(1.4065934065934016 1.4065934065934016) scale(2.81 2.81)">
	<path d="M 45 90 C 20.187 90 0 69.813 0 45 C 0 20.187 20.187 0 45 0 c 24.813 0 45 20.187 45 45 C 90 69.813 69.813 90 45 90 z M 45 2 C 21.29 2 2 21.29 2 45 c 0 23.71 19.29 43 43 43 c 23.71 0 43 -19.29 43 -43 C 88 21.29 68.71 2 45 2 z" style="stroke: none; stroke-width: 1; stroke-dasharray: none; stroke-linecap: butt; stroke-linejoin: miter; stroke-miterlimit: 10; fill: rgb(0,0,0); fill-rule: nonzero; opacity: 1;" transform=" matrix(1 0 0 1 0 0) " stroke-linecap="round"/>
	<path d="M 53.276 46 H 36.724 c -0.31 0 -0.603 -0.144 -0.792 -0.39 s -0.254 -0.565 -0.175 -0.865 l 8.276 -31.399 c 0.116 -0.439 0.513 -0.745 0.967 -0.745 s 0.851 0.306 0.967 0.745 l 8.276 31.399 c 0.079 0.3 0.015 0.62 -0.175 0.865 S 53.587 46 53.276 46 z M 38.021 44 h 13.957 L 45 17.524 L 38.021 44 z" style="stroke: none; stroke-width: 1; stroke-dasharray: none; stroke-linecap: butt; stroke-linejoin: miter; stroke-miterlimit: 10; fill: rgb(0,0,0); fill-rule: nonzero; opacity: 1;" transform=" matrix(1 0 0 1 0 0) " stroke-linecap="round"/>
	<path d="M 45 77.399 c -0.454 0 -0.851 -0.306 -0.967 -0.745 l -8.276 -31.399 c -0.079 -0.3 -0.015 -0.62 0.175 -0.865 S 36.414 44 36.724 44 h 16.553 c 0.311 0 0.603 0.144 0.792 0.39 s 0.254 0.565 0.175 0.865 l -8.276 31.399 C 45.851 77.094 45.454 77.399 45 77.399 z M 38.021 46 L 45 72.476 L 51.979 46 H 38.021 z" style="stroke: none; stroke-width: 1; stroke-dasharray: none; stroke-linecap: butt; stroke-linejoin: miter; stroke-miterlimit: 10; fill: rgb(0,0,0); fill-rule: nonzero; opacity: 1;" transform=" matrix(1 0 0 1 0 0) " stroke-linecap="round"/>
	<polygon points="45,13.6 36.72,45 45,45 53.28,45 " style="stroke: none; stroke-width: 1; stroke-dasharray: none; stroke-linecap: butt; stroke-linejoin: miter; stroke-miterlimit: 10; fill: rgb(0,0,0); fill-rule: nonzero; opacity: 1;" transform="  matrix(1 0 0 1 0 0) "/>
</g>
</svg>
